<?xml version="1.0" standalone="no"?><!DOCTYPE svg PUBLIC "-//W3C//DTD SVG 1.1//EN" "http://www.w3.org/Graphics/SVG/1.1/DTD/svg11.dtd"><svg t="1602502097762" class="icon" viewBox="0 0 1024 1024" version="1.1" xmlns="http://www.w3.org/2000/svg" p-id="52822" xmlns:xlink="http://www.w3.org/1999/xlink" width="128" height="128"><defs><style type="text/css"></style></defs><path d="M511.233032 74.193793c-248.489444 0-450.04188 195.183378-450.04188 435.977559s201.553459 435.981652 450.04188 435.981652c248.488421 0 450.040856-195.186448 450.040856-435.981652S759.721453 74.193793 511.233032 74.193793z m168.763658 218.027665c31.005155 0 56.258305 24.39869 56.258305 54.468542 0 30.070876-25.176402 54.468542-56.258305 54.468543-31.079856 0-56.254212-24.396643-56.254211-54.468543 0-30.070876 25.174356-54.468542 56.254211-54.468542z m-337.529363 0c31.001061 0 56.253188 24.39869 56.253188 54.468542 0 30.070876-25.173332 54.468542-56.253188 54.468543-31.080879 0-56.256258-24.396643-56.256258-54.468543 0.001023-30.070876 25.25315-54.468542 56.256258-54.468542z m337.610204 446.779579c-34.498722-55.478546-97.205902-92.618421-168.844499-92.61842s-134.344754 37.139875-168.845523 92.61842l-72.338538-42.114166c49.108464-79.175247 138.773623-132.245953 241.184061-132.245954 102.407368 0 191.996802 52.990888 241.182015 132.245954l-72.337516 42.114166z" fill="" p-id="52823"></path></svg>