<?xml version="1.0" standalone="no"?><!DOCTYPE svg PUBLIC "-//W3C//DTD SVG 1.1//EN" "http://www.w3.org/Graphics/SVG/1.1/DTD/svg11.dtd"><svg t="1602510635884" class="icon" viewBox="0 0 1024 1024" version="1.1" xmlns="http://www.w3.org/2000/svg" p-id="80390" xmlns:xlink="http://www.w3.org/1999/xlink" width="128" height="128"><defs><style type="text/css"></style></defs><path d="M512 0C229.226667 0 0 229.226667 0 512s229.226667 512 512 512c282.752 0 512-229.226667 512-512S794.752 0 512 0z m147.285333 258.368l47.829334 13.653333 38.656-34.154666 2.282666 50.090666 43.2 29.589334-50.133333 15.936-11.328 50.112-31.872-38.698667-50.048 2.261333 29.589333-40.981333-18.176-47.808z m-34.112 582.762667H374.741333c-18.218667 0-34.154667-15.914667-34.154666-34.154667s15.936-34.197333 34.154666-34.197333h250.410667c18.218667 0 34.133333 15.957333 34.176 34.197333 0 18.282667-15.957333 34.154667-34.154667 34.154667z m136.533334-113.877334H238.165333c-18.218667 0-34.133333-15.936-34.133333-34.133333 0-18.24 15.936-34.176 34.133333-34.176h101.717334a282.56 282.56 0 0 1-51.626667-52.373333c-6.805333-9.088-13.653333-18.197333-18.218667-27.264-4.544-9.152-11.370667-18.24-15.936-29.610667-50.090667-116.074667-13.674667-259.52 88.768-336.896 61.482667-45.525333 132.032-63.744 200.32-59.178667 11.370667 0 13.717333 15.914667 2.282667 20.48a185.941333 185.941333 0 0 0-45.546667 27.306667c-86.506667 63.744-111.552 188.928-59.157333 282.282667 54.634667 93.333333 172.992 132.032 273.173333 91.093333a186.602667 186.602667 0 0 0 45.546667-27.306667c6.826667-9.152 20.501333-0.021333 15.914667 9.088a292.693333 292.693333 0 0 1-81.130667 102.442667h67.456c18.24 0 34.176 15.914667 34.176 34.133333-0.021333 18.176-15.936 34.112-34.197333 34.112z" p-id="80391"></path></svg>