<?xml version="1.0" standalone="no"?><!DOCTYPE svg PUBLIC "-//W3C//DTD SVG 1.1//EN" "http://www.w3.org/Graphics/SVG/1.1/DTD/svg11.dtd"><svg t="1602511095855" class="icon" viewBox="0 0 1024 1024" version="1.1" xmlns="http://www.w3.org/2000/svg" p-id="83632" xmlns:xlink="http://www.w3.org/1999/xlink" width="128" height="128"><defs><style type="text/css"></style></defs><path d="M455.124913 398.236128v56.887625h113.77525v-56.887625c0-81.764583-113.775249-81.292416-113.77525 0z m501.629386-294.785982s-11.542499 1.996756-29.706717 4.329148c-47.25655 6.041466-140.831004 14.364125-203.333437-4.329148C584.788876 61.92218 511.847564 0 511.847564 0S438.906252 61.927868 300.100447 103.450146c-86.46919 25.855425-232.863803 0-232.863803 0s-26.475501 336.160352 5.28486 568.876247c115.481878 291.025711 439.308993 351.66223 439.308994 351.662229s407.850137-118.952023 439.627563-351.662229 5.296238-568.876247 5.296238-568.876247zM682.82332 640.554654c0 36.493411-5.028866 42.096842-37.659608 42.096843H373.974717c-27.618942 0-32.642119-5.603431-32.642119-36.482034V469.317215c0-30.878603 7.531922-39.297971 37.665296-39.297971 17.578276 2.80456 25.110198-2.810249 22.595764-25.263794-0.420968-4.209684-0.767983-6.826515-1.035354-8.41368-0.864692-0.329948-0.773672-4.55101 0 0 0.631453 0.244617 1.780583-1.598542 3.549787-10.490078 15.063843-72.986823 60.255372-106.675674 128.048355-101.055176 52.734828 5.614809 87.89138 50.533277 92.908869 120.709851v7.67414c0 14.028488 5.017489 16.838737 15.063843 16.838737 40.174041 0 42.665719 5.614809 42.665718 44.941224z" p-id="83633"></path></svg>