<?xml version="1.0" standalone="no"?><!DOCTYPE svg PUBLIC "-//W3C//DTD SVG 1.1//EN" "http://www.w3.org/Graphics/SVG/1.1/DTD/svg11.dtd"><svg t="1602510551486" class="icon" viewBox="0 0 1024 1024" version="1.1" xmlns="http://www.w3.org/2000/svg" p-id="77563" xmlns:xlink="http://www.w3.org/1999/xlink" width="128" height="128"><defs><style type="text/css"></style></defs><path d="M617.8 152.4H425.5v96.1h192.3v-96.1z m209 0h-74.5V114c0-27.6-30.1-50-57.7-50S637 86.4 637 114v153.8c0 27.6 30.1 50 57.7 50s57.7-22.4 57.7-50v-19.2h74.5c14.1 0 21.7 14.3 21.7 28.4v565.9c0 14.1-7.6 21-21.7 21H203.1c-14.1 0-27.6-6.9-27.6-21V277c0-14.1 13.5-28.4 27.6-28.4h87.8v19.2c0 27.6 30.1 50 57.7 50s57.7-22.4 57.7-50V114c0-27.6-30.1-50-57.7-50s-57.7 22.4-57.7 50v38.5h-87.8c-67.7 0-123.7 56.9-123.7 124.5v565.9c0 67.7 56.1 117.1 123.7 117.1h623.7c67.7 0 117.8-49.5 117.8-117.1V277c0-67.7-50.1-124.6-117.8-124.6zM534.1 283.2c-49.5 0-89.7 40.2-89.7 89.7 0 49.4 40.2 89.7 89.7 89.7s89.7-40.2 89.7-89.7-40.2-89.7-89.7-89.7zM367.3 603.5c-3.2 10.3-2.1 21.2 2.9 30.8 5 9.5 13.5 16.5 23.8 19.7 3.9 1.2 7.9 1.8 11.9 1.8 17.8 0 33.3-11.5 38.6-28.5l6.2-20 15.2 176 0.3 1.4c3.9 24.8 26.9 40.7 54.7 40.7H542c27.8 0 50.9-15.9 54.8-41.5l15.8-181.3c0.1-1.2 0-2.4 0-3.6l8.7 28.2c5.2 17.1 20.7 28.5 38.6 28.5 4 0 8-0.6 11.9-1.8 21.3-6.5 33.3-29.2 26.7-50.5l-18.1-59c-13.4-43.5-35.5-59.2-54-72.4l-5.7-4.2c-7-5.3-15.4-8.1-24.2-8.1-12.7 0-24.8 6.1-32.4 16.2-13.3 17.8-9.7 43.2 8.1 56.5 2.5 1.9 5 3.6 8.1 5.9 13.1 9.3 17.5 12.4 22.9 29.8l2.6 8.4c-0.8-1.2-1.5-2.4-2.4-3.5-6.9-8.3-16.7-13.3-27.5-14.2-1.1-0.1-2.1-0.1-3.2-0.1-20.9 0-38.7 16.2-40.4 36.9l-0.7 8.4-0.7-8.4c-1.8-20.7-19.5-37-40.4-37-1.1 0-2.2 0-3.3 0.1-9.6 0.8-18.3 5-25.1 11.8l0.7-2.3c5.3-17.3 9.7-20.5 23-29.9 2.6-1.8 5.2-3.7 7.9-5.7 17.8-13.3 21.5-38.7 8.1-56.5-7.6-10.1-19.7-16.2-32.4-16.2-8.8 0-17.1 2.8-24.2 8.1l-6.5 4.7c-17.7 12.6-39.8 28.3-53.2 71.8l-18.2 59z" p-id="77564"></path></svg>