<?xml version="1.0" standalone="no"?><!DOCTYPE svg PUBLIC "-//W3C//DTD SVG 1.1//EN" "http://www.w3.org/Graphics/SVG/1.1/DTD/svg11.dtd"><svg t="1602502398116" class="icon" viewBox="0 0 1024 1024" version="1.1" xmlns="http://www.w3.org/2000/svg" p-id="55267" xmlns:xlink="http://www.w3.org/1999/xlink" width="128" height="128"><defs><style type="text/css"></style></defs><path d="M78.72441134 574.47944614c3.9049654 3.9049654 9.76241345 5.85744807 15.61986154 5.85744806 5.85744807 0 11.71489617-2.92872403 15.61986153-7.80993075l103.48158265-123.00640959v545.71891233c0 11.71489617 9.76241345 21.4773096 21.4773096 21.47730962h71.26561825c11.71489617 0 21.4773096-9.76241345 21.47730961-21.47730962v-315.3259547h30.26348172v317.27843741c0 11.71489617 9.76241345 21.4773096 21.4773096 21.47730957h71.26561825c11.71489617 0 21.4773096-9.76241345 21.47730961-21.47730957v-546.6951537l107.38654803 123.98265094c7.80993077 8.78617211 21.4773096 8.78617211 30.26348173 0.97624136l0.97624135-0.97624136 50.76454999-51.74079132c7.80993077-7.80993077 7.80993077-20.50106826 0-28.31099903L510.22308621 326.51414429c-31.23972305-34.1684471-76.14682498-54.66951539-122.03016826-54.66951535h-92.74292783c-46.85958459 0.97624134-90.79044518 20.50106826-122.03016825 54.66951535L23.07865461 495.40389712c-7.80993077 7.80993077-7.80993077 20.50106826 0 28.31099905l55.64575673 50.76454997zM224.18437187 124.43218571c0 65.40817018 52.71703265 118.12520285 117.14896149 118.12520284s117.14896149-52.71703265 117.14896149-118.12520284c0-65.40817018-52.71703265-118.12520285-117.14896149-118.12520284s-117.14896149 52.71703265-117.14896149 118.12520284z" p-id="55268"></path></svg>