<?xml version="1.0" standalone="no"?><!DOCTYPE svg PUBLIC "-//W3C//DTD SVG 1.1//EN" "http://www.w3.org/Graphics/SVG/1.1/DTD/svg11.dtd"><svg t="1602508987461" class="icon" viewBox="0 0 1024 1024" version="1.1" xmlns="http://www.w3.org/2000/svg" p-id="70099" xmlns:xlink="http://www.w3.org/1999/xlink" width="128" height="128"><defs><style type="text/css"></style></defs><path d="M193.592889 665.059556l278.072889-278.755556L22.983111 174.506667a23.239111 23.239111 0 0 1-7.395555-37.205334l51.882666-55.751111a70.826667 70.826667 0 0 1 55.637334-14.848l545.109333 122.680889 96.426667-96.654222c55.637333-55.779556 174.279111-133.802667 233.614222-66.901333 63.032889 66.901333-3.697778 178.403556-63.061334 234.154666l-100.039111 96.654222 118.670223 542.634667c3.128889 19.854222-2.275556 40.106667-14.848 55.751111l-55.637334 55.808a21.560889 21.560889 0 0 1-37.091555-7.424L634.88 553.528889l-281.827556 278.755555v133.831112a55.096889 55.096889 0 0 1-29.610666 44.600888l-22.243556 11.150223a35.84 35.84 0 0 1-44.515555-18.602667l-70.542223-170.951111L15.587556 776.533333a46.449778 46.449778 0 0 1-14.848-40.874666l11.093333-37.205334c7.111111-18.801778 24.462222-31.857778 44.544-33.450666h137.244444v0.056889z" p-id="70100"></path></svg>