<?xml version="1.0" standalone="no"?><!DOCTYPE svg PUBLIC "-//W3C//DTD SVG 1.1//EN" "http://www.w3.org/Graphics/SVG/1.1/DTD/svg11.dtd"><svg t="1602547923769" class="icon" viewBox="0 0 1102 1024" version="1.1" xmlns="http://www.w3.org/2000/svg" p-id="6666" xmlns:xlink="http://www.w3.org/1999/xlink" width="137.75" height="128"><defs><style type="text/css"></style></defs><path d="M787.692308 39.384615c0-22.055385-17.329231-39.384615-39.384616-39.384615S708.923077 17.329231 708.923077 39.384615V78.769231h78.769231V39.384615z m-393.846154 0c0-22.055385-17.329231-39.384615-39.384616-39.384615S315.076923 17.329231 315.076923 39.384615V78.769231h78.769231V39.384615z m551.384615 39.384616h-157.538461v118.153846c0 22.055385-17.329231 39.384615-39.384616 39.384615S708.923077 218.978462 708.923077 196.923077V78.769231H393.846154v118.153846c0 22.055385-17.329231 39.384615-39.384616 39.384615S315.076923 218.978462 315.076923 196.923077V78.769231H157.538462C70.892308 78.769231 0 149.661538 0 236.307692v630.153846c0 86.646154 70.892308 157.538462 157.538462 157.538462h787.692307c86.646154 0 157.538462-70.892308 157.538462-157.538462V236.307692c0-86.646154-70.892308-157.538462-157.538462-157.538461z m-590.769231 708.923077h-78.76923c-22.055385 0-39.384615-17.329231-39.384616-39.384616s17.329231-39.384615 39.384616-39.384615h78.76923c22.055385 0 39.384615 17.329231 39.384616 39.384615s-17.329231 39.384615-39.384616 39.384616z m0-157.538462h-78.76923c-22.055385 0-39.384615-17.329231-39.384616-39.384615s17.329231-39.384615 39.384616-39.384616h78.76923c22.055385 0 39.384615 17.329231 39.384616 39.384616s-17.329231 39.384615-39.384616 39.384615z m236.307693 157.538462h-78.769231c-22.055385 0-39.384615-17.329231-39.384615-39.384616s17.329231-39.384615 39.384615-39.384615h78.769231c22.055385 0 39.384615 17.329231 39.384615 39.384615s-17.329231 39.384615-39.384615 39.384616z m0-157.538462h-78.769231c-22.055385 0-39.384615-17.329231-39.384615-39.384615s17.329231-39.384615 39.384615-39.384616h78.769231c22.055385 0 39.384615 17.329231 39.384615 39.384616s-17.329231 39.384615-39.384615 39.384615z m236.307692 157.538462h-78.769231c-22.055385 0-39.384615-17.329231-39.384615-39.384616s17.329231-39.384615 39.384615-39.384615h78.769231c22.055385 0 39.384615 17.329231 39.384615 39.384615s-17.329231 39.384615-39.384615 39.384616z m0-157.538462h-78.769231c-22.055385 0-39.384615-17.329231-39.384615-39.384615s17.329231-39.384615 39.384615-39.384616h78.769231c22.055385 0 39.384615 17.329231 39.384615 39.384616s-17.329231 39.384615-39.384615 39.384615z m157.538462-236.307692h-866.461539c-22.055385 0-39.384615-17.329231-39.384615-39.384616s17.329231-39.384615 39.384615-39.384615h866.461539c22.055385 0 39.384615 17.329231 39.384615 39.384615s-17.329231 39.384615-39.384615 39.384616z" p-id="6667"></path></svg>