<?xml version="1.0" standalone="no"?><!DOCTYPE svg PUBLIC "-//W3C//DTD SVG 1.1//EN" "http://www.w3.org/Graphics/SVG/1.1/DTD/svg11.dtd"><svg t="1602510368600" class="icon" viewBox="0 0 1024 1024" version="1.1" xmlns="http://www.w3.org/2000/svg" p-id="72455" xmlns:xlink="http://www.w3.org/1999/xlink" width="128" height="128"><defs><style type="text/css"></style></defs><path d="M871.6 276.1L516.1 420.9 159.7 276.1l355.5-137.5 356.4 137.5z m-741.1 60.2l354.7 148.1v401.1C457 873 427.7 860 397.3 846.4c-26-11.4-55.5-24.1-88.3-38.2-32.8-14.1-65.8-28.2-98.8-42.3-11.9-5.4-22.8-12.6-32.5-21.5-9.8-8.9-18.2-18.7-25.2-29.3-7.1-10.6-12.5-21.8-16.3-33.8-3.8-11.9-5.7-23.6-5.7-35v-310z m763 0v308.3c0 14.1-2.7 27.8-8.1 41.1-5.4 13.3-12.3 25.8-20.8 37.4-8.4 11.7-17.8 22-28.1 30.9-10.3 9-20.3 15.9-30.1 20.8-28.7 11.9-58.8 24.4-90.3 37.4s-60.5 24.9-87 35.8c-30.9 13-61.3 25.5-91.1 37.4V484.3l355.5-148z" p-id="72456"></path></svg>