<?xml version="1.0" standalone="no"?><!DOCTYPE svg PUBLIC "-//W3C//DTD SVG 1.1//EN" "http://www.w3.org/Graphics/SVG/1.1/DTD/svg11.dtd"><svg t="1602508974848" class="icon" viewBox="0 0 1138 1024" version="1.1" xmlns="http://www.w3.org/2000/svg" p-id="69324" xmlns:xlink="http://www.w3.org/1999/xlink" width="142.25" height="128"><defs><style type="text/css"></style></defs><path d="M1094.559444 938.666243h-43.781717v-640c0-23.465608-19.702471-42.666243-43.782988-42.666243H788.083613c-24.080516 0-43.782988 19.200635-43.782988 42.666243v640h-43.781717V42.666243C700.518908 19.200635 680.816437 0 656.735921 0H131.347692C107.265906 0 87.564705 19.199365 87.564705 42.666243v896H43.782988C19.702471 938.666243 0 957.866878 0 981.333757 0 1004.799365 19.702471 1024 43.782988 1024h1050.776456C1118.63996 1024 1138.342432 1004.800635 1138.342432 981.333757c0-23.466878-19.702471-42.667514-43.782988-42.667514zM831.8666 469.333757h131.347693v85.332486H831.86533v-85.332486z m0 256h131.347693v85.332486H831.86533v-85.332486z m-394.041806-512H569.171216v85.332486H437.823524v-85.332486z m0 256H569.171216v85.332486H437.823524v-85.332486z m0 256H569.171216v85.332486H437.823524v-85.332486z m-218.911127-512h131.346422v85.332486H218.912397v-85.332486z m0 256h131.346422v85.332486H218.912397v-85.332486z m0 256h131.346422v85.332486H218.912397v-85.332486z" p-id="69325"></path></svg>