<?xml version="1.0" standalone="no"?><!DOCTYPE svg PUBLIC "-//W3C//DTD SVG 1.1//EN" "http://www.w3.org/Graphics/SVG/1.1/DTD/svg11.dtd"><svg t="1602547750222" class="icon" viewBox="0 0 1024 1024" version="1.1" xmlns="http://www.w3.org/2000/svg" p-id="4634" xmlns:xlink="http://www.w3.org/1999/xlink" width="128" height="128"><defs><style type="text/css"></style></defs><path d="M898.415094 386.415094c0-38.641509-32.201258-64.402516-64.402515-64.402515h-70.842768C743.849057 135.245283 640.805031 0 512 0S280.150943 135.245283 260.830189 322.012579H189.987421c-32.201258 0-64.402516 25.761006-64.402515 64.402515l-51.522013 573.18239c0 32.201258 25.761006 64.402516 70.842767 64.402516h734.18868c38.641509 0 70.842767-32.201258 70.842767-64.402516l-51.522013-573.18239zM512 64.402516c90.163522 0 167.446541 109.484277 186.767296 257.610063H325.232704c19.320755-148.125786 96.603774-257.610063 186.767296-257.610063zM318.792453 508.779874c-32.201258 0-64.402516-25.761006-64.402516-57.962264 0-38.641509 32.201258-64.402516 64.402516-64.402516 38.641509 0 64.402516 25.761006 64.402516 64.402516 0 32.201258-25.761006 57.962264-64.402516 57.962264z m386.415094 0c-38.641509 0-64.402516-25.761006-64.402516-57.962264 0-38.641509 25.761006-64.402516 64.402516-64.402516 32.201258 0 64.402516 25.761006 64.402516 64.402516 0 32.201258-32.201258 57.962264-64.402516 57.962264z" p-id="4635"></path></svg>