<?xml version="1.0" standalone="no"?><!DOCTYPE svg PUBLIC "-//W3C//DTD SVG 1.1//EN" "http://www.w3.org/Graphics/SVG/1.1/DTD/svg11.dtd"><svg t="1602511888062" class="icon" viewBox="0 0 1123 1024" version="1.1" xmlns="http://www.w3.org/2000/svg" p-id="91916" xmlns:xlink="http://www.w3.org/1999/xlink" width="140.375" height="128"><defs><style type="text/css"></style></defs><path d="M591.398167 921.6l-69.818182 4.654545c-23.272727 0-37.236364 13.963636-37.236364 27.927273l4.654545 46.545455c0 13.963636 18.618182 23.272727 41.890909 23.272727l69.818182-4.654545c23.272727 0 37.236364-13.963636 37.236364-27.927273l-4.654545-46.545455C628.634531 926.254545 610.016349 916.945455 591.398167 921.6z" p-id="91917"></path><path d="M1000.998167 381.672727c-51.2-186.181818-209.454545-377.018182-446.836364-381.672727-9.309091 0-13.963636 0-23.272727 0C302.816349 4.654545 144.561804 176.872727 125.943622 377.018182 51.470895 404.945455-4.383651 474.763636 0.270895 558.545455c4.654545 186.181818 83.781818 186.181818 186.181818 190.836364L186.452713 390.981818c0-153.6 153.6-321.163636 367.709091-321.163636 209.454545 0 325.818182 158.254545 377.018182 302.545455l0 367.709091c-9.309091 23.272727-37.236364 51.2-88.436364 97.745455-65.163636 60.509091-162.909091 93.090909-162.909091 93.090909-9.309091 0-18.618182 18.618182-13.963636 27.927273 4.654545 13.963636 18.618182 18.618182 27.927273 13.963636 0 0 102.4-32.581818 176.872727-102.4s102.4-125.672727 107.054545-130.327273c83.781818-18.618182 144.290909-18.618182 144.290909-181.527273C1117.361804 479.418182 1070.816349 409.6 1000.998167 381.672727z" p-id="91918"></path><path d="M875.32544 516.654545c0-167.563636-139.636364-307.2-316.509091-307.2-172.218182 0-316.509091 134.981818-316.509091 307.2s139.636364 307.2 316.509091 307.2C731.034531 819.2 875.32544 684.218182 875.32544 516.654545zM530.889076 702.836364c-41.890909-4.654545-79.127273-27.927273-107.054545-55.854545-9.309091-9.309091-4.654545-18.618182 0-27.927273 9.309091-4.654545 18.618182-4.654545 27.927273 0 23.272727 23.272727 51.2 41.890909 83.781818 46.545455 46.545455 9.309091 93.090909-9.309091 125.672727-46.545455 9.309091-9.309091 18.618182-9.309091 27.927273 0s9.309091 18.618182 0 27.927273c-32.581818 37.236364-83.781818 60.509091-134.981818 60.509091C549.507258 702.836364 540.198167 702.836364 530.889076 702.836364z" p-id="91919"></path></svg>