<?xml version="1.0" standalone="no"?><!DOCTYPE svg PUBLIC "-//W3C//DTD SVG 1.1//EN" "http://www.w3.org/Graphics/SVG/1.1/DTD/svg11.dtd"><svg t="1602511704799" class="icon" viewBox="0 0 1024 1024" version="1.1" xmlns="http://www.w3.org/2000/svg" p-id="88506" xmlns:xlink="http://www.w3.org/1999/xlink" width="128" height="128"><defs><style type="text/css"></style></defs><path d="M74.317576 199.583202a199.583202 199.583202 0 0 0 104.397368 82.903792c8.188029 3.411679 16.03489 6.141022 24.222918 9.5527a705.876317 705.876317 0 0 0 89.727149 26.269926c13.646715 3.411679 27.975765 4.77635 41.963648 8.188029h10.235036c13.305547 3.070511 28.316933 3.752847 42.645983 6.141021h12.964379c15.011386 2.388175 32.410947 2.388175 47.763501 3.752847h15.693722a167.513423 167.513423 0 0 0 21.834744 0H579.928355a96.891674 96.891674 0 0 0 16.376058 0h6.141021c5.458686 0 11.940875 0 17.399561-1.70584h7.846861c9.211532 0 19.787736 0 28.658101-3.752846h10.917372l34.116787-5.117518c8.870365-2.388175 18.764233-3.752847 27.634597-5.799854h6.823357c6.823357-2.047007 14.32905-3.070511 21.493576-5.117518 15.693722-4.435182 32.069779-8.870365 46.739998-13.987882l28.999268-10.235036c10.576204-4.094014 20.81124-9.211532 30.705108-13.987883a208.112399 208.112399 0 0 0 21.834744-11.599707c7.164525-4.435182 13.987883-8.870365 20.470072-13.646715l4.77635-3.070511 3.411679-9.5527a116.338243 116.338243 0 0 0 34.116786-42.304816 112.244228 112.244228 0 0 0 6.823358-15.011386v-4.77635a64.139559 64.139559 0 0 0-6.48219-36.504962 117.702914 117.702914 0 0 0-38.210801-45.034158c-3.070511-2.388175-5.799854-5.117518-8.870364-7.164525l-18.081897-11.25854a286.581008 286.581008 0 0 0-30.705108-15.352554 371.531807 371.531807 0 0 0-52.88102-21.152408L782.2409 34.116787a747.839964 747.839964 0 0 0-73.692259-17.058394c-11.599707-2.388175-23.881751-3.752847-34.116787-6.141021L633.150542 5.799854c-6.141022 0-12.623211 0-18.423065-2.047007h-152.160868A147.043351 147.043351 0 0 0 443.461208 0h-15.011386l-12.282043 3.411679h-30.022772c-10.917372 2.047007-23.199415 2.388175-34.116787 4.435182S341.110848 11.940875 336.675666 12.964379C323.370119 15.352554 309.041069 17.058393 296.759026 20.470072c-4.094014 0-8.188029 0-12.282044 2.388175l-28.316933 7.164525-21.152407 6.141022c-6.823357 1.705839-13.646715 4.435182-20.128905 6.823357s-19.446568 6.482189-28.999268 10.576204-11.940875 5.799854-18.081897 7.846861l-7.505693 3.752847a222.100281 222.100281 0 0 0-26.611094 14.32905c-4.77635 3.070511-9.5527 7.164525-14.670218 9.893868a173.995612 173.995612 0 0 0-13.646715 12.964379 114.973571 114.973571 0 0 0-23.881751 26.611094A68.233573 68.233573 0 0 0 75.34108 136.467147c-1.705839 3.752847-2.729343 7.846861-4.77635 12.282043a64.480727 64.480727 0 0 0-2.388175 24.905254v8.188029a24.222919 24.222919 0 0 1 2.047007 6.48219 68.233573 68.233573 0 0 0 4.094014 11.599707zM74.999912 545.868587a142.949336 142.949336 0 0 0 16.717225 24.222919l4.776351 4.435182a149.090358 149.090358 0 0 0 31.046276 24.905254 231.652982 231.652982 0 0 0 22.858247 13.987883l12.964379 6.482189 11.940875 5.799854 34.116787 13.987882c9.893868 3.752847 20.128904 5.799854 30.36394 9.211533a866.90755 866.90755 0 0 0 84.609631 19.787736l34.116786 5.117518h11.940876c12.964379 2.047007 27.293429 2.388175 40.598976 4.77635h9.893868c11.599707 1.705839 24.905254 0 36.504962 2.388175h26.611093a186.618823 186.618823 0 0 0 26.269926 0 196.512691 196.512691 0 0 0 26.952262 0h59.704376c4.77635 0 18.764233 0 27.29343-2.729343h5.117518l39.91664-5.117518c24.222919-4.435182 47.763501-8.188029 70.621749-13.305546s38.210801-9.893868 56.975033-16.03489c10.576204-3.411679 20.470072-6.482189 30.363941-10.576204l21.493575-8.870365 7.846861-3.752846a248.370207 248.370207 0 0 0 50.834012-30.36394 124.867439 124.867439 0 0 0 13.646715-10.235036l4.77635-4.435183 11.599708-12.964378a50.492844 50.492844 0 0 0 3.752846-5.458686 83.927295 83.927295 0 0 0 13.305547-31.387444 126.914446 126.914446 0 0 0 0-22.517079V280.439987a184.230648 184.230648 0 0 0 0-22.51708v6.141022l-2.388175 4.77635a83.24496 83.24496 0 0 1-23.540583 24.222919 389.613704 389.613704 0 0 1-48.104669 27.293429l-5.799854 2.388175c-5.799854 2.729343-12.282043 5.799854-18.081897 7.846861l-6.823357 2.388175a443.518227 443.518227 0 0 1-47.081166 16.03489c-19.446568 5.458686-39.234305 9.893868-59.022041 15.011386-11.25854 3.070511-23.540583 4.094014-34.116787 7.164525h-9.211532c-11.599707 2.388175-24.222919 3.752847-35.822626 5.799854s-15.352554 0-22.517079 2.729343l-41.62248 4.094014h-59.363209a178.430794 178.430794 0 0 1-24.564086 0 187.301159 187.301159 0 0 1-25.246422 0H462.225441l-34.116787-2.047007c-5.799854 0-12.623211 0-18.423065-2.047007h-6.482189c-5.799854 0-11.940875 0-18.081897-2.047007-14.670218-2.729343-29.681604-3.411679-44.351823-6.141022l-34.116786-6.141022-17.740729-3.752846h-7.164526l-23.540582-5.799854c-3.411679 0-6.823357 0-10.235036-2.388175s-10.235036-2.388175-15.352554-4.094014L204.643701 342.873706A375.284654 375.284654 0 0 1 95.469984 292.039694a56.292698 56.292698 0 0 1-26.269926-34.116787H68.176555v268.84028a21.152408 21.152408 0 0 1 2.047007 6.482189A68.233573 68.233573 0 0 0 74.999912 545.868587zM955.213009 596.361431v6.141022l-2.388175 4.77635a82.903792 82.903792 0 0 1-23.540583 24.564087 389.272536 389.272536 0 0 1-48.104669 27.293429l-5.799854 2.047007c-5.799854 2.729343-12.282043 5.799854-18.081897 7.846861l-6.823357 2.388175a430.895016 430.895016 0 0 1-47.081166 16.03489c-19.446568 5.458686-39.234305 9.893868-59.022041 15.352554-11.25854 3.070511-23.540583 4.094014-34.116787 7.164525h-9.211532c-11.599707 2.388175-24.222919 3.752847-35.822626 5.799854s-15.352554 0-22.517079 2.729343l-41.62248 4.094014h-59.363209a167.513423 167.513423 0 0 1-24.564086 0 172.289773 172.289773 0 0 1-25.246423 0h-29.681604l-34.116787-2.047007c-5.799854 0-12.623211 0-18.423065-1.705839h-6.482189l-18.081897-2.047008C370.451285 716.452521 355.098731 716.452521 341.110848 713.723178l-34.116786-6.141022-17.74073-3.752847h-7.164525l-23.540583-5.799853-10.235036-2.388175c-4.77635 0-10.235036-2.388175-15.352554-4.094015L204.643701 682.335734a377.672829 377.672829 0 0 1-109.173717-51.857516 56.633866 56.633866 0 0 1-26.269926-34.116787H68.176555v268.84028a22.858247 22.858247 0 0 1 2.047007 6.482189 68.233573 68.233573 0 0 0 5.117518 12.964379 141.243497 141.243497 0 0 0 16.717225 24.222918l4.77635 4.435183a146.361015 146.361015 0 0 0 31.046276 24.905254 206.747727 206.747727 0 0 0 22.858247 13.987883l12.964379 6.482189 11.940876 5.799854 34.116786 13.987882c9.893868 3.752847 20.128904 6.141022 30.363941 9.552701 26.611094 8.870365 55.610362 13.305547 84.609631 19.787736l34.116786 5.117518h11.940876c12.964379 2.388175 27.293429 2.388175 40.598976 4.77635h9.893868c11.599707 1.705839 24.905254 0 36.504962 2.729343h26.611093a173.995612 173.995612 0 0 0 27.29343 3.070511 183.207145 183.207145 0 0 0 26.952261 0h59.704377c4.77635 0 18.764233 0 27.293429-2.729343h5.117518l39.916641-5.117518c24.222919-4.094014 47.763501-7.846861 70.621748-13.305547s38.210801-9.893868 56.975034-16.03489c10.576204-3.411679 20.470072-6.482189 30.36394-10.576204l21.493576-8.870364 7.846861-3.752847a247.687871 247.687871 0 0 0 50.834012-30.36394 118.38525 118.38525 0 0 0 12.964379-10.576204l4.77635-4.094014 11.599707-12.964379a49.810509 49.810509 0 0 0 3.752847-5.458686 83.927295 83.927295 0 0 0 13.305547-31.387444 126.914446 126.914446 0 0 0 0-22.517079v-226.876631a179.795466 179.795466 0 0 0 0-22.51708z" fill="" p-id="88507"></path></svg>