<?xml version="1.0" standalone="no"?><!DOCTYPE svg PUBLIC "-//W3C//DTD SVG 1.1//EN" "http://www.w3.org/Graphics/SVG/1.1/DTD/svg11.dtd"><svg t="1602500760095" class="icon" viewBox="0 0 1024 1024" version="1.1" xmlns="http://www.w3.org/2000/svg" p-id="42662" xmlns:xlink="http://www.w3.org/1999/xlink" width="128" height="128"><defs><style type="text/css"></style></defs><path d="M0 0v1024h1024V0H0z m740.693333 571.733333s-18.773333 88.746667-160.426666 146.773334c-51.2 20.48-114.346667 40.96-199.68 49.493333-34.133333 3.413333-71.68 5.12-105.813334 5.12v-27.306667c51.2-1.706667 145.066667-13.653333 211.626667-37.546666-20.48-5.12-42.666667-15.36-59.733333-25.6-17.066667-11.946667-34.133333-25.6-44.373334-39.253334 20.48-3.413333 37.546667-13.653333 47.786667-20.48 10.24 13.653333 35.84 46.08 90.453333 69.973334 23.893333-8.533333 47.786667-22.186667 68.266667-37.546667 20.48-17.066667 40.96-37.546667 52.906667-61.44 1.706667-3.413333 3.413333-8.533333 5.12-11.946667v-6.826666c0-6.826667 3.413333-11.946667-13.653334-11.946667h-160.426666c-20.48 17.066667-56.32 37.546667-90.453334 51.2-35.84 13.653333-73.386667 23.893333-107.52 27.306667V614.4c68.266667-13.653333 138.24-51.2 175.786667-102.4h80.213333c-5.12 0-17.066667 17.066667-25.6 17.066667h208.213334c20.48 0 29.013333 23.893333 27.306666 42.666666z m10.24-121.173333c-34.133333-8.533333-68.266667-34.133333-85.333333-66.56V494.933333h-68.266667v-114.346666c-34.133333 44.373333-85.333333 95.573333-136.533333 110.933333v-20.48c17.066667-10.24 35.84-27.306667 46.08-42.666667-1.706667 0-8.533333-1.706667-10.24-1.706666-44.373333-11.946667-69.973333-35.84-87.04-54.613334V494.933333h-51.2v-112.64c-17.066667 18.773333-34.133333 68.266667-85.333333 102.4v-29.013333c17.066667-34.133333 51.2-87.04 56.32-133.12H273.066667V290.133333h85.333333v-34.133333h51.2v34.133333h85.333333v34.133334h-63.146666c15.36 34.133333 51.2 71.68 90.453333 87.04 27.306667-37.546667 37.546667-69.973333 40.96-87.04h-51.2v-34.133334h85.333333v-34.133333h68.266667v34.133333h85.333333v34.133334h-81.92c11.946667 34.133333 30.72 71.68 81.92 104.106666v22.186667z" fill="" p-id="42663"></path></svg>