<?xml version="1.0" standalone="no"?><!DOCTYPE svg PUBLIC "-//W3C//DTD SVG 1.1//EN" "http://www.w3.org/Graphics/SVG/1.1/DTD/svg11.dtd"><svg t="1602501623837" class="icon" viewBox="0 0 1024 1024" version="1.1" xmlns="http://www.w3.org/2000/svg" p-id="51217" xmlns:xlink="http://www.w3.org/1999/xlink" width="128" height="128"><defs><style type="text/css"></style></defs><path d="M973.653333 512L534.4256 938.666667c-29.149867 28.330667-41.028267 33.450667-78.301867 42.666666 19.421867-13.5168 50.449067-73.966933 51.882667-85.333333l241.288533-227.566933-145.339733-145.066667 189.098667-167.799467c12.288-12.014933 14.062933-29.149867-1.4336-46.933333-12.6976-15.6672-36.352-15.701333-48.674134-3.720533l-192.6144 164.420266-42.325333-42.666666v-42.666667l169.301333-170.666667s126.976-128 273.954134 19.182934c149.367467 151.483733 22.391467 279.483733 22.391466 279.483733z m-465.681066 104.174933V512l42.325333-42.666667 53.6576 54.033067-95.982933 92.842667zM232.8576 1024C105.813333 1024 0 938.666667 0 853.333333V170.666667c0-85.333333 110.7968-170.666667 232.823467-170.666667 122.026667 0 232.823467 85.333333 232.823466 170.666667v682.666666c0 85.333333-105.813333 170.666667-232.789333 170.666667z m190.464-853.333333s-42.325333-128-190.464-128C84.650667 42.666667 42.325333 170.666667 42.325333 170.666667v341.333333h84.650667v298.666667S126.976 853.333333 169.301333 853.333333c42.359467 0 42.359467-42.666667 42.359467-42.666666V512h211.6608V170.666667zM169.335467 213.333333C211.626667 213.333333 211.626667 256 211.626667 256V512h-84.650667V256s0-42.666667 42.325333-42.666667z" p-id="51218"></path></svg>