<?xml version="1.0" standalone="no"?><!DOCTYPE svg PUBLIC "-//W3C//DTD SVG 1.1//EN" "http://www.w3.org/Graphics/SVG/1.1/DTD/svg11.dtd"><svg t="1602509132136" class="icon" viewBox="0 0 1024 1024" version="1.1" xmlns="http://www.w3.org/2000/svg" p-id="71702" xmlns:xlink="http://www.w3.org/1999/xlink" width="128" height="128"><defs><style type="text/css"></style></defs><path d="M955.308032 241.1264l-249.0112 248.9344 20.8128 20.736 249.5744-249.5488L1024.018432 308.5312 750.738432 581.7856l-23.6288 23.6544-23.6544-23.6544-53.7088-53.7088-73.5744 73.5488 264.9856 259.4816-94.6944 94.6432-264.96-259.4816-265.0112 267.776-94.6176-94.6432 265.0624-267.776-51.6864-51.6096c-79.2576 30.6176-181.3248 6.8096-255.232-67.0208-94.8736-94.8224-107.1104-236.4416-27.392-316.1856 79.7952-79.7184 221.3632-67.456 316.2624 27.392 76.4416 76.4928 99.2 183.2448 63.4624 263.552l49.1776 49.2288 73.5488-73.5744-53.504-53.504-23.6544-23.6288 23.6544-23.6544 272.5376-272.64 47.4112 47.36-249.0112 248.96 20.8896 20.7872 248.9088-248.8832 47.3344 47.3088-248.9344 248.9344 18.3552 18.3296 248.8832-248.9344 47.36 47.2832z" p-id="71703"></path></svg>