<?xml version="1.0" standalone="no"?><!DOCTYPE svg PUBLIC "-//W3C//DTD SVG 1.1//EN" "http://www.w3.org/Graphics/SVG/1.1/DTD/svg11.dtd"><svg t="1602511178987" class="icon" viewBox="0 0 1033 1024" version="1.1" xmlns="http://www.w3.org/2000/svg" p-id="86382" xmlns:xlink="http://www.w3.org/1999/xlink" width="129.125" height="128"><defs><style type="text/css"></style></defs><path d="M481.752747 546.901333v238.506667a238.549333 238.549333 0 0 1-229.162667 238.421333L243.160747 1024a238.549333 238.549333 0 0 1 0-477.098667h238.549333z m308.352 0a238.549333 238.549333 0 0 1 9.386666 476.928l-9.386666 0.170667a238.549333 238.549333 0 0 1-238.421334-229.205333l-0.170666-9.386667v-238.506667h238.592zM243.203413 0a238.549333 238.549333 0 0 1 238.549334 238.549333v238.549334H243.160747A238.549333 238.549333 0 0 1 233.859413 0.170667L243.203413 0z m546.858667 0a238.549333 238.549333 0 0 1 0 477.098667h-238.549333v-238.506667A238.549333 238.549333 0 0 1 780.71808 0.128l9.386667-0.170667z" p-id="86383"></path></svg>