<?xml version="1.0" standalone="no"?><!DOCTYPE svg PUBLIC "-//W3C//DTD SVG 1.1//EN" "http://www.w3.org/Graphics/SVG/1.1/DTD/svg11.dtd"><svg t="1602501027823" class="icon" viewBox="0 0 1024 1024" version="1.1" xmlns="http://www.w3.org/2000/svg" p-id="46442" xmlns:xlink="http://www.w3.org/1999/xlink" width="128" height="128"><defs><style type="text/css"></style></defs><path d="M872.789333 229.546667H700.302222V103.992889A47.160889 47.160889 0 0 0 653.198222 56.888889H370.801778a47.160889 47.160889 0 0 0-47.104 47.104v125.553778H151.096889A94.208 94.208 0 0 0 56.888889 323.754667v15.644444h910.222222v-15.644444a94.208 94.208 0 0 0-94.321778-94.208z m-266.695111 0H417.678222V151.096889h188.302222v78.449778zM56.888889 872.903111A94.208 94.208 0 0 0 151.096889 967.111111h721.692444a94.208 94.208 0 0 0 94.208-94.208V433.493333h-910.222222z m329.614222-219.704889h78.392889v-78.392889a47.104 47.104 0 0 1 94.208 0v78.449778h78.449778a47.104 47.104 0 0 1 0 94.208H559.104v78.449778a47.104 47.104 0 0 1-94.208 0v-78.506667H386.446222a47.104 47.104 0 0 1 0-94.208z" p-id="46443"></path></svg>