<?xml version="1.0" standalone="no"?><!DOCTYPE svg PUBLIC "-//W3C//DTD SVG 1.1//EN" "http://www.w3.org/Graphics/SVG/1.1/DTD/svg11.dtd"><svg t="1602495437329" class="icon" viewBox="0 0 1024 1024" version="1.1" xmlns="http://www.w3.org/2000/svg" p-id="23462" xmlns:xlink="http://www.w3.org/1999/xlink" width="128" height="128"><defs><style type="text/css"></style></defs><path d="M810.666667 789.333333l21.333333 149.333334-149.333333-64-149.333334 64 21.333334-149.333334-106.666667-106.666666 149.333333-21.333334 85.333334-128 85.333333 128 149.333333 21.333334zM448 469.333333a192 192 0 1 1 192-192 192 192 0 0 1-192 192z m0 42.666667h85.333333a199.466667 199.466667 0 0 1 84.266667 40.106667L576 618.666667l-192 42.666666 128 149.333334-23.253333 128H256c-106.666667 0-149.333333-70.613333-149.333333-170.666667s202.666667-256 256-256h85.333333z" fill="#666666" p-id="23463"></path></svg>