<?xml version="1.0" standalone="no"?><!DOCTYPE svg PUBLIC "-//W3C//DTD SVG 1.1//EN" "http://www.w3.org/Graphics/SVG/1.1/DTD/svg11.dtd"><svg t="1602495635652" class="icon" viewBox="0 0 1024 1024" version="1.1" xmlns="http://www.w3.org/2000/svg" p-id="30930" xmlns:xlink="http://www.w3.org/1999/xlink" width="128" height="128"><defs><style type="text/css"></style></defs><path d="M1024 512c0-282.763636-229.236364-512-512-512C229.236364 0 0 229.236364 0 512c0 282.763636 229.236364 512 512 512C794.763636 1024 1024 794.763636 1024 512zM428.916364 672.628364c0 12.520727-3.490909 30.114909-7.540364 39.144727-11.543273 25.088-48.174545 46.638545-77.730909 46.638545-18.059636 0-32.116364-5.026909-40.634182-14.522182-6.516364-8.005818-11.031273-19.549091-11.031273-30.114909 0-22.574545 17.035636-43.147636 44.637091-54.178909 11.031273-4.514909 21.085091-6.516364 30.580364-6.516364 15.546182 0 29.602909 2.513455 39.610182 7.028364L406.807273 355.095273l291.467636-70.749091 0 317.021091c0 25.088-8.517818 45.149091-25.088 60.695273-18.059636 16.058182-40.634182 25.6-62.184727 25.6-18.059636 0-31.604364-5.026909-40.122182-14.522182-6.516364-8.005818-11.031273-19.549091-11.031273-30.114909 0-19.549091 13.032727-38.120727 34.629818-49.664 11.543273-6.004364 29.602909-11.543273 39.144727-11.543273 15.546182 0 30.580364 2.513455 42.635636 7.540364L676.258909 366.638545 428.916364 428.311273 428.916364 672.628364z" p-id="30931"></path></svg>