<?xml version="1.0" standalone="no"?><!DOCTYPE svg PUBLIC "-//W3C//DTD SVG 1.1//EN" "http://www.w3.org/Graphics/SVG/1.1/DTD/svg11.dtd"><svg t="1602501355110" class="icon" viewBox="0 0 1024 1024" version="1.1" xmlns="http://www.w3.org/2000/svg" p-id="48788" xmlns:xlink="http://www.w3.org/1999/xlink" width="128" height="128"><defs><style type="text/css"></style></defs><path d="M873.793796 203.956816a163.933548 163.933548 0 1 1-170.896371 211.615239l-162.090447 229.397746a62.631285 62.631285 0 0 0-7.986769-32.220127l-20.513026-38.227269 212.024818-299.845142A163.728759 163.728759 0 0 1 873.793796 203.956816zM115.631004 1012.600082a48.125401 48.125401 0 0 1-46.077512 7.304139 47.886481 47.886481 0 0 1-28.63632-61.539077c3.754464-10.375973 10.785551-18.77232 19.591475-24.233358L310.624208 724.359647l38.909898-106.148934 107.616589-298.240962a151.714474 151.714474 0 0 1-21.707628 5.324512c-88.844269 15.700486-174.0706-44.097885-189.771085-132.942154a164.070074 164.070074 0 0 1 133.044549-189.771086 164.070074 164.070074 0 0 1 181.40887 220.284638l-109.630346 303.804395 53.82536 100.687896c4.778409 8.0209 5.973011 17.884901 2.662256 27.305192l-47.306246 130.723608a31.84468 31.84468 0 0 1-13.584333 17.953164l-330.461088 209.226035z m13.857385-167.176039l-97.616062 17.16814c-17.338797 3.071834-31.84468-14.232831-31.84468-31.810549 0-28.670452 10.239447-47.545166 27.03214-61.266025 14.266963-11.604707 31.059656-17.338797 49.422398-21.98068l131.4745-33.585386 93.2131-55.395409-17.16814 47.135588-154.513256 139.734321zM505.515017 146.547649a99.766346 99.766346 0 0 0-115.876409-80.994026 99.766346 99.766346 0 0 0-80.994027 115.876409 100.005266 100.005266 0 0 0 196.870436-34.882383z m362.681215 121.200922a99.834609 99.834609 0 0 0-108.299218 90.858027 99.834609 99.834609 0 0 0 90.858027 108.265087 99.834609 99.834609 0 0 0 108.299218-90.823896 99.834609 99.834609 0 0 0-90.858027-108.299218zM423.59944 649.74821a48.500848 48.500848 0 0 0-33.312334 0.136526l58.194191 69.423451a47.886481 47.886481 0 0 0-24.915988-69.525846z m0.409578 90.175397l-58.228322-69.38932a47.886481 47.886481 0 0 0 24.915988 69.525846c11.195129 4.12991 22.90223 3.754464 33.312334-0.136526z" p-id="48789"></path></svg>