<?xml version="1.0" standalone="no"?><!DOCTYPE svg PUBLIC "-//W3C//DTD SVG 1.1//EN" "http://www.w3.org/Graphics/SVG/1.1/DTD/svg11.dtd"><svg t="1602495311002" class="icon" viewBox="0 0 1024 1024" version="1.1" xmlns="http://www.w3.org/2000/svg" p-id="20581" xmlns:xlink="http://www.w3.org/1999/xlink" width="128" height="128"><defs><style type="text/css"></style></defs><path d="M512 51.2c-176 0-320 144-320 320v6.4c0 9.6 0 19.2 3.2 32 0 6.4 3.2 12.8 3.2 16 0 6.4 3.2 12.8 3.2 19.2 0 6.4 3.2 12.8 6.4 19.2 0 3.2 3.2 9.6 3.2 12.8 44.8 124.8 163.2 214.4 300.8 214.4 140.8 0 259.2-89.6 300.8-214.4 0-3.2 3.2-9.6 3.2-12.8 3.2-6.4 3.2-12.8 6.4-19.2 0-6.4 3.2-12.8 3.2-19.2 0-6.4 3.2-12.8 3.2-16 0-9.6 3.2-19.2 3.2-32v-6.4c0-176-144-320-320-320z m0 531.2c-96 0-176-70.4-192-163.2-3.2-16 9.6-35.2 25.6-35.2 16-3.2 35.2 9.6 35.2 25.6 9.6 64 64 108.8 128 108.8s118.4-44.8 128-108.8c3.2-16 19.2-28.8 35.2-25.6 16 3.2 28.8 19.2 25.6 35.2-9.6 92.8-89.6 163.2-185.6 163.2z" p-id="20582"></path><path d="M956.8 812.8l-147.2-256c-54.4 83.2-140.8 144-240 160l140.8 240c6.4 9.6 16 16 28.8 16h3.2c12.8 0 22.4-9.6 28.8-22.4l38.4-112 118.4 22.4c12.8 3.2 25.6-3.2 32-12.8 3.2-9.6 3.2-22.4-3.2-35.2zM214.4 556.8l-147.2 256c-6.4 9.6-6.4 25.6 0 35.2 6.4 9.6 19.2 16 32 12.8l118.4-22.4L256 950.4c3.2 12.8 16 19.2 28.8 22.4H288c12.8 0 22.4-6.4 28.8-16l140.8-240c-102.4-16-188.8-76.8-243.2-160z" p-id="20583"></path></svg>