<?xml version="1.0" standalone="no"?><!DOCTYPE svg PUBLIC "-//W3C//DTD SVG 1.1//EN" "http://www.w3.org/Graphics/SVG/1.1/DTD/svg11.dtd"><svg t="1602508397920" class="icon" viewBox="0 0 1024 1024" version="1.1" xmlns="http://www.w3.org/2000/svg" p-id="61534" xmlns:xlink="http://www.w3.org/1999/xlink" width="128" height="128"><defs><style type="text/css"></style></defs><path d="M764.72256381 892.97721217h155.43246328V380.02748386l-155.43246328 100.63902729v412.31070102zM243.39573468 522.40472543v372.91238408h155.43915861V527.08786909l-79.58664267-83.86808851-75.85251594 79.18494485zM-6.57327657 896.48538369H148.8558403V625.77697999L-6.57327657 726.80766336v169.67772033z m521.32013378-209.46769464v204.00960801h155.43413711V585.98867951l-155.43413711 101.02900954z m0 0" p-id="61535"></path><path d="M1019.50192135 102.29436661H718.24764567l121.78346523 88.5478819L562.28795063 393.68023335l-1.6134905-1.16827417-1.59675471 1.16827417L289.86897899 195.12871327-39.15944703 435.42012277v115.85170833L289.86897899 310.98376931l269.20872643 198.16153654 1.59675471-0.78163833 1.6134905 1.16827419 356.80089991-260.56884726 100.41307081 73.33185317V102.29436661z m0 0" p-id="61536"></path></svg>