<?xml version="1.0" standalone="no"?><!DOCTYPE svg PUBLIC "-//W3C//DTD SVG 1.1//EN" "http://www.w3.org/Graphics/SVG/1.1/DTD/svg11.dtd"><svg t="1602815212645" class="icon" viewBox="0 0 1024 1024" version="1.1" xmlns="http://www.w3.org/2000/svg" p-id="5416" xmlns:xlink="http://www.w3.org/1999/xlink" width="128" height="128"><defs><style type="text/css"></style></defs><path d="M64.67 512c2.03-148.27 27.78-271.04 103.07-344.26C240.96 92.45 363.73 66.7 512 64.67c148.27 2.03 271.04 27.78 344.26 103.07C931.55 240.96 957.3 363.73 959.33 512c-2.03 148.27-27.78 271.04-103.07 344.26C783.04 931.55 660.27 957.3 512 959.33c-148.27-2.03-271.04-27.78-344.26-103.07C92.45 783.04 66.7 660.27 64.67 512z" p-id="5417"></path><path d="M512 326.39c-130.11 0-236.23 149.23-236.23 185.61 0 36.38 106.12 185.61 236.23 185.61 130.12 0 236.24-149.23 236.24-185.61 0-36.38-106.13-185.61-236.24-185.61z m0 269.98c-46.52 0-84.37-37.85-84.37-84.37s37.85-84.37 84.37-84.37 84.37 37.85 84.37 84.37-37.85 84.37-84.37 84.37z" fill="#FFFFFF" p-id="5418"></path></svg>