<?xml version="1.0" standalone="no"?><!DOCTYPE svg PUBLIC "-//W3C//DTD SVG 1.1//EN" "http://www.w3.org/Graphics/SVG/1.1/DTD/svg11.dtd"><svg t="1602494369342" class="icon" viewBox="0 0 1024 1024" version="1.1" xmlns="http://www.w3.org/2000/svg" p-id="14283" xmlns:xlink="http://www.w3.org/1999/xlink" width="128" height="128"><defs><style type="text/css"></style></defs><path d="M767.34111 509.873281m-62.03808 0a60.674 60.674 0 1 0 124.076161 0 60.674 60.674 0 1 0-124.076161 0Z" p-id="14284"></path><path d="M767.34111 647.745794c76.023591 0 137.872512-61.848921 137.872512-137.872512s-61.848921-137.872512-137.872512-137.872512-137.872512 61.849944-137.872512 137.872512S691.318541 647.745794 767.34111 647.745794zM767.34111 392.450412c64.746636 0 117.42287 52.676234 117.42287 117.42287 0 64.746636-52.676234 117.42287-117.42287 117.42287S649.91824 574.619917 649.91824 509.873281C649.91824 445.125623 702.594474 392.450412 767.34111 392.450412z" p-id="14285"></path><path d="M192.915764 403.784626c-58.497225 0-106.088655 47.591431-106.088655 106.088655s47.591431 106.088655 106.088655 106.088655c24.904597 0 47.828646-8.630772 65.949075-23.05186l171.138968 171.137946c-15.047869 18.316745-24.093769 41.74181-24.093769 67.241492 0 58.497225 47.591431 106.088655 106.088655 106.088655s106.088655-47.591431 106.088655-106.088655c0-26.356522-9.664501-50.49528-25.630559-69.068668l79.025598-79.025598c28.423981 15.783034 61.107622 24.789057 95.859744 24.789057 109.238923 0 198.112047-88.873124 198.112047-198.112047 0-109.238923-88.873124-198.112047-198.112047-198.112047-34.365624 0-66.711846 8.801526-94.913948 24.259411l-76.107435-76.107435c13.646046-17.852538 21.766599-40.143671 21.766599-64.298788 0-58.497225-47.591431-106.087633-106.088655-106.087633s-106.088655 47.590408-106.088655 106.087633c0 24.88108 8.614412 47.785702 23.01096 65.89795L261.460921 428.972451C242.958084 413.272238 219.025868 403.784626 192.915764 403.784626zM107.276751 509.873281c0-47.221292 38.417721-85.639013 85.639013-85.639013s85.639013 38.417721 85.639013 85.639013c0 47.222314-38.417721 85.639013-85.639013 85.639013S107.276751 557.095596 107.276751 509.873281zM511.998694 916.928528c-47.221292 0-85.639013-38.416698-85.639013-85.639013s38.417721-85.639013 85.639013-85.639013c47.222314 0 85.639013 38.416698 85.639013 85.639013S559.219986 916.928528 511.998694 916.928528zM945.003514 509.873281c0 97.964012-79.698392 177.662404-177.662404 177.662404s-177.662404-79.698392-177.662404-177.662404c0-97.96299 79.698392-177.662404 177.662404-177.662404S945.003514 411.910292 945.003514 509.873281zM569.229063 509.873281c0 66.988939 33.426986 126.310284 84.470316 162.183047l-75.999051 75.999051c-18.081574-14.303502-40.911555-22.853498-65.702656-22.853498-25.648964 0-49.200817 9.151215-67.563574 24.357569L273.576312 578.701666c15.844383-18.540668 25.427085-42.585358 25.427085-68.828384 0-25.03752-8.72484-48.07302-23.284985-66.238437l167.401796-167.400774c18.547826 15.869945 42.61092 25.469007 68.877463 25.469007 26.989438 0 51.651707-10.136888 70.394827-26.795167l72.178036 72.178036C603.038457 382.894294 569.229063 442.505002 569.229063 509.873281zM511.998694 109.976432c47.222314 0 85.639013 38.416698 85.639013 85.63799s-38.416698 85.639013-85.639013 85.639013c-47.221292 0-85.639013-38.417721-85.639013-85.639013S464.777402 109.976432 511.998694 109.976432z" p-id="14286"></path><path d="M686.193861 30.692146C420.375093-65.513197 126.896138 71.985086 30.690795 337.803855-19.797327 477.306203-5.914065 624.423999 57.098441 746.65049c-1.835355 2.351709-3.341472 5.023455-4.41201 7.981495-5.452897 15.065252 2.340462 31.697968 17.405713 37.149843 15.065252 5.452897 31.697968-2.340462 37.149843-17.405713 5.451875-15.065252-2.340462-31.697968-17.405713-37.149843-5.060264-1.831265-10.297417-2.16255-15.227826-1.231068C12.459939 614.709396 3.244308 473.731606 49.920617 344.762868c22.579473-62.388792 56.694589-118.480116 101.39853-166.716733 43.185555-46.5986 94.39146-83.958052 152.194419-111.039514C361.316525 39.925159 422.794286 24.490792 486.239301 21.131938c65.674027-3.476439 130.606754 6.209534 192.995546 28.789007 62.388792 22.579473 118.480116 56.694589 166.716733 101.39853 46.5986 43.185555 83.958052 94.39146 111.040536 152.195442 27.081462 57.803982 42.516852 119.281742 45.874683 182.725736 3.476439 65.674027-6.209534 130.606754-28.789007 192.995546-22.579473 62.388792-56.694589 118.480116-101.39853 166.716733-43.185555 46.5986-94.39146 83.958052-152.194419 111.039514-57.803982 27.081462-119.281742 42.516852-182.725736 45.874683-65.674027 3.476439-130.606754-6.209534-192.995546-28.789007-60.025836-21.724678-114.308389-54.188485-161.341544-96.490616-1.548038-1.392621-3.078694-2.803646-4.608327-4.216716-1.074629-1.154382-2.424305-2.082796-4.009152-2.656409-5.329177-1.928401-11.212539 0.828211-13.14094 6.157387-1.554173 4.29238-0.063394 8.941606 3.358854 11.596992 1.567465 1.447835 3.135953 2.894647 4.72489 4.324077 47.619038 42.829731 104.127535 77.377357 168.057207 100.515105 265.818768 96.205343 559.2967-41.293963 655.502043-307.111709S952.011606 126.896467 686.193861 30.692146z" p-id="14287"></path></svg>