<?xml version="1.0" standalone="no"?><!DOCTYPE svg PUBLIC "-//W3C//DTD SVG 1.1//EN" "http://www.w3.org/Graphics/SVG/1.1/DTD/svg11.dtd"><svg t="1602502226466" class="icon" viewBox="0 0 1634 1024" version="1.1" xmlns="http://www.w3.org/2000/svg" p-id="53565" xmlns:xlink="http://www.w3.org/1999/xlink" width="204.25" height="128"><defs><style type="text/css"></style></defs><path d="M1131.96439 819.085857c-262.521707 0-475.337739-212.817308-475.337739-475.337738C656.626651 208.558025 713.068531 86.553068 803.668939 0 533.067873 13.832455 317.914088 237.619714 317.914088 511.660381c0 282.958859 229.38076 512.338342 512.338342 512.338342 174.266714 0 328.208631-87.006319 420.763764-219.948032-38.047549 9.811927-77.940022 15.035166-119.051804 15.035166z m60.664137-796.710578L1230.174308 98.451226l83.954855 12.200751-60.74968 59.217564 14.341883 83.616512-75.092839-39.477525-75.091563 39.477525 14.341883-83.616512-60.75351-59.217564 83.957408-12.200751 37.545782-76.075947z m-283.186123 234.020518l28.945503 58.648127 64.724244 9.405916-46.834236 45.651952 11.055495 64.462508-57.892283-30.43421-57.88973 30.43421 11.056771-64.462508-46.836788-45.651952 64.724244-9.405916 28.94678-58.648127z m226.283331 230.552828l28.945503 58.649404 64.722968 9.403362-46.834236 45.65323 11.056772 64.46123-57.892284-30.434209-57.891006 30.434209 11.056771-64.46123-46.835512-45.65323 64.724244-9.403362 28.94678-58.649404z" fill="" p-id="53566"></path></svg>