<?xml version="1.0" standalone="no"?><!DOCTYPE svg PUBLIC "-//W3C//DTD SVG 1.1//EN" "http://www.w3.org/Graphics/SVG/1.1/DTD/svg11.dtd"><svg t="1602500944094" class="icon" viewBox="0 0 1024 1024" version="1.1" xmlns="http://www.w3.org/2000/svg" p-id="45043" xmlns:xlink="http://www.w3.org/1999/xlink" width="128" height="128"><defs><style type="text/css"></style></defs><path d="M391.909136 609.30594c-17.900023-18.705055-33.967855-40.455812-66.980107-39.197578-63.278453 2.522432-126.705986 1.340228-190.094759 0.308596-22.560261-0.384626-43.203354 4.769066-42.365526 28.732168 0.803541 23.131237 21.983322 28.705334 44.158957 28.210389 38.504356-0.845283 77.050454-0.234055 115.560773-0.234055v-0.266853c42.249243 0 84.496995 0.231074 126.705987-0.11181 11.373305-0.07454 28.010622-1.793431 13.014675-17.440857M133.459753 404.479106c39.76259-0.158025 79.91577-3.285721 119.263918 0.948148 48.310832 5.229723 83.694945-11.06471 115.444491-56.784533-82.320429 0-158.916189 0.378663-235.51195-0.266853-20.801118-0.192313-40.414069 3.167948-39.540461 26.9447 0.767761 21.558444 19.316282 29.233077 40.344002 29.158538m-11.640158 106.550384c24.842674-0.837829 49.801631-0.226601 74.684556-0.226602v0.150571c22.403727 0 44.881994 1.147915 67.167948-0.459166 11.262986-0.797577 30.26471 8.816585 30.799907-14.693315 0.384626-17.172513-4.19809-34.613371-23.620219-36.943489-51.827626-6.177871-104.1174-6.714559-155.939064 0.460657-12.521221 1.7174-26.946191 12.018821-22.48423 28.890193 3.476543 13.206988 12.327417 23.39809 29.391102 22.821151" p-id="45044"></path><path d="M928.07946 387.986396c-18.582809-42.586164-54.420126-22.402236-84.340462-24.115164-28.202935-1.64137-57.175122 30.491311-81.062194 9.311531-20.650547-18.284649-32.70962-48.775961-42.132961-76.024785-12.176846-35.226089-40.455812-60.032984-62.97433-96.785651 79.727929 30.725367 127.70184 2.097554 150.977685-35.686746 26.79413-43.505986 19.426601-100.599115-16.945912-134.146564-36.751176-33.887352-92.167156-39.000792-133.001631-12.170883-52.209271 34.270487-59.573818 78.120848-24.314931 165.058281-56.672723-17.783741-103.615001-44.68819-153.492663-64.418914-19.885768-7.860983-38.777172-27.479898-61.902445-18.017797-61.215188 25.034987-122.163522 50.915257-181.661309 79.689169-36.676636 17.70771-44.463079 43.011041-29.006476 71.254227 12.595761 23.049243 44.385558 30.416771 75.796692 16.713348 26.864198-11.716189 53.925181-23.199814 79.723457-37.09406 43.163103-23.241556 82.284649-23.620219 124.41761 5.723177 27.439646 19.123969 23.508409 30.759655 3.243979 50.035686-45.912136 43.62376-94.916189 84.230142-133.234196 135.179688-28.162683 37.398183-26.829909 76.059073 6.905381 108.306545 41.527696 39.728302 85.033683 77.476823 127.208386 116.559609 13.048963 12.059073 24.4983 24.229956-6.185325 29.954624-41.14307 7.674633-81.55714 18.705055-122.548148 27.096762-29.956115 6.109294-54.536408 33.967855-49.382716 58.431866 6.067552 28.848451 41.788586 47.361193 72.513953 40.112928 81.172513-19.201491 162.35099-38.127184 243.98416-55.190869 41.864617-8.740554 61.44328-50.49038 36.256231-84.148148-23.433869-31.260564-48.619427-61.216678-71.255718-93.012439-53.085861-74.610016-52.666946-74.912648 14.238621-140.217098 37.590496-36.675146 37.287864-36.518612 65.869461 11.262987 12.44519 20.720615 23.053715 45.988167 53.73734 43.541765 60.530911-4.803354 119.073096-20.340461 177.312649-35.947635 21.983322-6.031773 30.759655-39.498719 21.255812-61.25544M623.070934 763.144468c-29.082506 21.488376-69.997484 9.31153-103.31386 28.319217-10.22539 5.84095-18.775122 13.204007-24.271698 21.562916-28.849942 43.810109-55.41598 89.15127-84.154111 133.117913-16.94144 25.950338-10.419194 48.735709 10.918612 64.65297 22.822642 16.9802 50.56492 16.677568 68.885348-8.054787 51.636804-69.572607 101.630748-140.40792 151.782716-211.053901 13.964314-19.60997 1.7174-25.913068-19.847007-28.544328" p-id="45045"></path></svg>