<?xml version="1.0" standalone="no"?><!DOCTYPE svg PUBLIC "-//W3C//DTD SVG 1.1//EN" "http://www.w3.org/Graphics/SVG/1.1/DTD/svg11.dtd"><svg t="1602508811292" class="icon" viewBox="0 0 1024 1024" version="1.1" xmlns="http://www.w3.org/2000/svg" p-id="65202" xmlns:xlink="http://www.w3.org/1999/xlink" width="128" height="128"><defs><style type="text/css"></style></defs><path d="M53.611695 58.989484h321.670172a53.611695 53.611695 0 0 1 53.611695 53.611696v321.670172a53.611695 53.611695 0 0 1-53.611695 53.611695H53.611695a53.611695 53.611695 0 0 1-53.611695-53.611695v-321.670172a53.611695 53.611695 0 0 1 53.611695-53.611696z m0 536.116954h321.670172a53.611695 53.611695 0 0 1 53.611695 53.611695v321.670172a53.611695 53.611695 0 0 1-53.611695 53.611695H53.611695a53.611695 53.611695 0 0 1-53.611695-53.611695v-321.670172a53.611695 53.611695 0 0 1 53.611695-53.611695z m536.116953 0h321.670172a53.611695 53.611695 0 0 1 53.611696 53.611695v321.670172a53.611695 53.611695 0 0 1-53.611696 53.611695h-321.670172a53.611695 53.611695 0 0 1-53.611695-53.611695v-321.670172a53.611695 53.611695 0 0 1 53.611695-53.611695z m-105.078922-289.503155l160.835086-278.780816A53.182802 53.182802 0 0 1 718.396717 7.200587l278.780816 160.835086a53.236413 53.236413 0 0 1 19.30021 73.233576l-160.835086 278.780815a53.182802 53.182802 0 0 1-72.911906 19.621881l-278.780815-160.835086a53.236413 53.236413 0 0 1-19.30021-73.233576z" p-id="65203"></path></svg>