<?xml version="1.0" standalone="no"?><!DOCTYPE svg PUBLIC "-//W3C//DTD SVG 1.1//EN" "http://www.w3.org/Graphics/SVG/1.1/DTD/svg11.dtd"><svg t="1602508999211" class="icon" viewBox="0 0 1024 1024" version="1.1" xmlns="http://www.w3.org/2000/svg" p-id="70872" xmlns:xlink="http://www.w3.org/1999/xlink" width="128" height="128"><defs><style type="text/css"></style></defs><path d="M880.64 0c79.17568 0 143.36 64.18432 143.36 143.36v737.28c0 79.17568-64.18432 143.36-143.36 143.36H143.36c-79.17568 0-143.36-64.18432-143.36-143.36V143.36C0 64.18432 64.18432 0 143.36 0h737.28zM618.24 267.38688c-43.20256-42.5472-112.66048-42.5472-155.52512 0.32768l-20.2752 20.2752-3.9936-0.8192c-64.01024-12.3904-132.63872 5.8368-182.44608 55.6544l286.80192 286.80192 3.05152-3.1232c48.19968-50.2784 65.45408-119.5008 51.78368-183.31648l23.26528-23.26528 21.26848 23.59296 1.69984 1.96608c6.53312 7.9872 9.9328 17.84832 9.9328 28.28288v254.22848h-77.76256l-1.78176 0.0512A30.23872 30.23872 0 0 0 576.04096 788.48H742.1952l1.77152-0.0512a30.23872 30.23872 0 0 0-1.77152-60.43648h-27.91424V473.76384l-0.06144-3.584a106.78272 106.78272 0 0 0-26.85952-67.20512l-38.22592-42.53696 0.43008-3.40992a110.14144 110.14144 0 0 0-31.3344-89.64096z m-299.76576 180.1216c-33.2288 33.2288-33.2288 86.7328 0 119.63392 32.90112 32.90112 86.41536 32.90112 119.64416 0z" p-id="70873"></path></svg>