<?xml version="1.0" standalone="no"?><!DOCTYPE svg PUBLIC "-//W3C//DTD SVG 1.1//EN" "http://www.w3.org/Graphics/SVG/1.1/DTD/svg11.dtd"><svg t="1602508961457" class="icon" viewBox="0 0 1024 1024" version="1.1" xmlns="http://www.w3.org/2000/svg" p-id="68580" xmlns:xlink="http://www.w3.org/1999/xlink" width="128" height="128"><defs><style type="text/css"></style></defs><path d="M512 7.4C233.3 7.4 7.4 233.3 7.4 512s225.9 504.6 504.6 504.6 504.6-225.9 504.6-504.6S790.7 7.4 512 7.4zM409.3 241.6c92.4-62.9 136.2 11.1 206.7 0 5.6 44.1 3.5 103.5-3.1 138.6-4.2 23.3-13.9 44.1-27.4 60.8-19.1 23.3-45.2 37.9-74.3 37.9s-55.6-14.6-74.3-37.9c-13.2-16-22.6-36.1-27.1-58.7-6.8-51.1-7.5-98.4-0.5-140.7zM305.7 682.3l33.7-127.8c4.5-21.2 14.2-37.9 28.1-50.7l2.1-1.7 2.8-0.7 74.3-19.1 14.6 11.1 42.7 90.3H372v175.4h-20.8c-51.4 0-56.9-32-45.5-76.8zM650 808.1H378l-14.9-26.4h305L650 808.1z m22.5-49H661V583.3H524.2l39.3-90.3 14.2-11.1 77.1 19.1 3.8 1 2.4 3.1c11.5 14.9 18.8 31.6 22.6 49.7l0.7-0.3L718 682.3c11.9 44.8 6.3 76.8-45.5 76.8z" fill="" p-id="68581"></path></svg>