<?xml version="1.0" standalone="no"?><!DOCTYPE svg PUBLIC "-//W3C//DTD SVG 1.1//EN" "http://www.w3.org/Graphics/SVG/1.1/DTD/svg11.dtd"><svg t="1602496028069" class="icon" viewBox="0 0 1024 1024" version="1.1" xmlns="http://www.w3.org/2000/svg" p-id="36719" xmlns:xlink="http://www.w3.org/1999/xlink" width="128" height="128"><defs><style type="text/css"></style></defs><path d="M146.285714 73.142857h731.428572a73.142857 73.142857 0 0 1 73.142857 73.142857v731.428572a73.142857 73.142857 0 0 1-73.142857 73.142857H146.285714a73.142857 73.142857 0 0 1-73.142857-73.142857V146.285714a73.142857 73.142857 0 0 1 73.142857-73.142857z m36.571429 229.412572l127.268571 418.889142h74.349715L514.925714 302.555429h-67.913143l-97.828571 331.483428h-1.097143L252.379429 302.555429H182.857143z m413.915428 279.259428H529.92c0.365714 25.819429 4.790857 48.201143 13.348571 67.181714 8.557714 18.980571 19.968 34.523429 34.230858 46.628572 14.262857 12.141714 31.012571 21.138286 50.285714 26.989714 19.236571 5.851429 39.753143 8.813714 61.476571 8.813714a213.211429 213.211429 0 0 0 55.625143-7.314285c18.176-4.900571 34.377143-12.617143 48.64-23.186286 14.262857-10.569143 25.782857-24.137143 34.523429-40.777143 8.740571-16.64 13.092571-36.681143 13.092571-60.16 0-10.971429-1.499429-21.906286-4.534857-32.841143a108.434286 108.434286 0 0 0-37.156571-56.32 107.776 107.776 0 0 0-32.621715-17.590857c-5.010286-1.572571-13.312-4.022857-24.868571-7.314286a11538.285714 11538.285714 0 0 1-68.461714-19.968l-16.822858-5.010285a79.36 79.36 0 0 1-32.914285-19.053715c-8.374857-8.411429-12.580571-20.041143-12.580572-34.925714 0-10.532571 2.230857-19.382857 6.692572-26.404571 4.461714-7.021714 10.093714-12.617143 16.822857-16.713143 6.802286-4.096 14.262857-7.021714 22.491428-8.777143a114.468571 114.468571 0 0 1 24.064-2.669714c23.186286 0 42.24 5.595429 57.234286 16.749714 14.957714 11.117714 23.332571 30.208 25.124572 57.197714h66.852571c0-21.942857-3.949714-41.179429-11.776-57.782857a123.099429 123.099429 0 0 0-31.817143-41.984 134.802286 134.802286 0 0 0-46.518857-25.490286A183.296 183.296 0 0 0 683.885714 292.571429c-17.115429 0-34.011429 2.450286-50.834285 7.314285-16.713143 4.900571-31.707429 12.434286-44.873143 22.601143-13.202286 10.166857-23.808 23.003429-31.817143 38.436572-8.045714 15.433143-12.068571 33.718857-12.068572 54.857142 0 10.971429 1.353143 21.723429 4.022858 32.256 2.669714 10.605714 7.241143 20.553143 13.641142 29.952 6.436571 9.362286 15.067429 17.883429 25.965715 25.490286 10.861714 7.643429 24.502857 13.787429 40.886857 18.505143a3085.165714 3085.165714 0 0 0 66.56 19.053714c18.029714 4.900571 33.792 10.093714 47.36 15.542857 7.826286 3.145143 15.030857 8.521143 21.650286 16.128 6.582857 7.643429 9.874286 19.492571 9.874285 35.510858 0 7.826286-1.426286 15.542857-4.278857 23.186285a51.785143 51.785143 0 0 1-13.897143 20.224c-6.4 5.851429-14.774857 10.678857-25.124571 14.372572-10.349714 3.730286-22.820571 5.595429-37.449143 5.595428-13.531429 0-26.112-1.682286-37.668571-5.010285a85.686857 85.686857 0 0 1-30.756572-15.835429 73.142857 73.142857 0 0 1-20.845714-27.867429c-5.010286-11.337143-7.497143-25.014857-7.497143-41.069714z" p-id="36720"></path></svg>